<svg width="103" height="24" viewBox="0 0 103 24"  xmlns="http://www.w3.org/2000/svg">
<path d="M58.6382 17.0376H61.704V6.9624H58.6382V17.0376Z" fill="currentColor"/>
<path d="M63.9479 17.0376H67.0138V14.5049H73.104C75.2722 14.5049 75.9212 12.7793 75.9212 11.2764V10.4136C75.9212 8.4375 75.2169 6.9624 72.303 6.9624H63.9479V17.0376ZM67.0138 9.46729H71.5158C72.4411 9.46729 72.7725 9.85694 72.7725 10.5388V10.9285C72.7725 11.5269 72.4963 12 71.7782 12H67.0138V9.46729Z" fill="currentColor"/>
<path d="M76.8507 9.46729H81.1594V17.0376H84.2253V9.46729H88.534V6.9624H76.8507V9.46729Z" fill="currentColor"/>
<path d="M89.6892 14.4353C89.6892 16.6201 90.8078 17.1489 93.5974 17.1489H97.3123C101.386 17.1489 102.298 16.7036 102.298 13.99C102.298 11.0537 101.193 10.7615 96.4285 10.7754C93.1417 10.7893 92.7688 10.7615 92.7688 9.88477C92.7688 9.34205 93.2384 9.10547 93.9289 9.10547H97.3261C98.7348 9.10547 98.8176 9.41163 98.8176 10.1492H101.883V9.82911C101.883 8.06177 101.552 6.85107 98.0166 6.85107H93.7355C89.8687 6.85107 89.703 8.25659 89.703 10.0796C89.703 12.5567 90.2278 13.1133 94.8403 13.1133C98.79 13.1133 99.1491 13.169 99.1491 14.0457C99.1491 14.825 98.4862 14.8945 97.8371 14.8945H94.0808C93.1969 14.8945 92.7688 14.8111 92.755 13.7395H89.6892V14.4353Z" fill="currentColor"/>
<path fill-rule="evenodd" clip-rule="evenodd" d="M0 12C0 5.44938 11.8191 0.124684 26.5036 0.00215794V0H27.6079V0.00277233C42.2605 0.141377 54.0426 5.45965 54.0426 12C54.0426 18.6274 41.9447 24 27.0213 24C12.0978 24 0 18.6274 0 12ZM51.1191 15.9102C52.1764 14.8001 52.7592 13.6704 52.9028 12.5517H45.1891C45.076 14.2005 44.4587 15.7626 43.4365 17.1724L49.6926 17.1724C50.2325 16.7626 50.7091 16.3408 51.1191 15.9102ZM48.0346 18.2759H42.5256C41.1236 19.7805 39.2327 21.0655 36.9989 22.0345C40.2912 21.4398 43.237 20.5617 45.6797 19.4769C46.534 19.0976 47.3203 18.6957 48.0346 18.2759ZM42.0323 17.1724C43.2432 15.7557 43.9509 14.1811 44.0816 12.5517H36.1569C36.1 14.2005 35.7896 15.7626 35.2756 17.1724H42.0323ZM34.8176 18.2759L40.9513 18.2759C40.4472 18.7284 39.8867 19.1593 39.2727 19.5645C37.1571 20.9604 34.458 22.0082 31.4117 22.5293C32.8093 21.5237 33.9849 20.053 34.8176 18.2759ZM34.0934 17.1724C34.6474 15.7921 34.9899 14.2263 35.0519 12.5517H27.6079V17.1724L34.0934 17.1724ZM27.6079 18.2759H33.5855C33.2948 18.831 32.9675 19.3467 32.6093 19.8168C31.2538 21.5954 29.4948 22.6805 27.6079 22.8675V18.2759ZM26.5036 17.1724V12.5517H18.9907C19.0527 14.2263 19.3952 15.7921 19.9492 17.1724L26.5036 17.1724ZM20.4571 18.2759H26.5036V22.874C24.5906 22.7068 22.8053 21.6171 21.4333 19.8168C21.0751 19.3467 20.7478 18.831 20.4571 18.2759ZM18.7669 17.1724C18.2529 15.7626 17.9425 14.2005 17.8856 12.5517H9.96097C10.0917 14.1811 10.7993 15.7557 12.0102 17.1724H18.7669ZM13.0912 18.2759L19.225 18.2759C20.0576 20.053 21.2332 21.5237 22.6309 22.5293C19.5845 22.0082 16.8854 20.9604 14.7698 19.5645C14.1558 19.1593 13.5953 18.7284 13.0912 18.2759ZM10.6061 17.1724C9.58383 15.7626 8.9665 14.2005 8.85342 12.5517H1.13973C1.28339 13.6704 1.86612 14.8001 2.92343 15.9102C3.33347 16.3408 3.81001 16.7626 4.3499 17.1724L10.6061 17.1724ZM6.00792 18.2759H11.517C12.9189 19.7805 14.8098 21.0655 17.0437 22.0345C13.7513 21.4398 10.8055 20.5617 8.36285 19.4769C7.50859 19.0976 6.72225 18.6957 6.00792 18.2759ZM51.1191 8.08976C52.1764 9.19989 52.7592 10.3296 52.9028 11.4483H45.1891C45.076 9.79952 44.4587 8.23744 43.4365 6.82759L49.6927 6.82759C50.2325 7.23739 50.7091 7.65924 51.1191 8.08976ZM48.0346 5.72414C47.3203 5.30426 46.534 4.90244 45.6797 4.52306C43.237 3.43829 40.2912 2.5602 36.9989 1.96553C39.2327 2.93451 41.1236 4.21951 42.5256 5.72414L48.0346 5.72414ZM40.9513 5.72414C40.4472 5.27157 39.8867 4.84066 39.2727 4.43552C37.1571 3.0396 34.458 1.9918 31.4117 1.47075C32.8093 2.47629 33.9849 3.94702 34.8176 5.72414L40.9513 5.72414ZM35.2756 6.82759C35.7896 8.23744 36.1 9.79952 36.1569 11.4483H44.0816C43.9509 9.81894 43.2432 8.24432 42.0323 6.82759L35.2756 6.82759ZM34.0934 6.82759C34.6474 8.20793 34.9899 9.77365 35.0519 11.4483H27.6079V6.82759L34.0934 6.82759ZM18.9907 11.4483H26.5036V6.82759L19.9492 6.82759C19.3952 8.20793 19.0527 9.77365 18.9907 11.4483ZM33.5855 5.72414L27.6079 5.72414V1.13246C29.4948 1.31955 31.2538 2.40456 32.6093 4.18323C32.9675 4.65326 33.2948 5.16902 33.5855 5.72414ZM26.5036 5.72414V1.12602C24.5906 1.29321 22.8053 2.38289 21.4333 4.18323C21.0751 4.65326 20.7478 5.16902 20.4571 5.72414L26.5036 5.72414ZM19.225 5.72414C20.0576 3.94702 21.2332 2.47629 22.6309 1.47075C19.5845 1.9918 16.8854 3.0396 14.7698 4.43552C14.1558 4.84066 13.5953 5.27157 13.0912 5.72414L19.225 5.72414ZM12.0102 6.82759C10.7993 8.24432 10.0917 9.81894 9.96097 11.4483H17.8856C17.9425 9.79952 18.2529 8.23744 18.7669 6.82759L12.0102 6.82759ZM10.6061 6.82759C9.58383 8.23744 8.9665 9.79952 8.85342 11.4483H1.13973C1.28339 10.3296 1.86612 9.19989 2.92343 8.08976C3.33347 7.65924 3.81001 7.23739 4.3499 6.82759L10.6061 6.82759ZM11.517 5.72414C12.9189 4.21951 14.8098 2.93451 17.0437 1.96553C13.7513 2.5602 10.8055 3.43829 8.36285 4.52306C7.50859 4.90244 6.72224 5.30426 6.00792 5.72414L11.517 5.72414Z" fill="currentColor"/>
</svg>
