<svg width="609" height="180" viewBox="0 0 609 180" fill="none" xmlns="http://www.w3.org/2000/svg">
<path fill-rule="evenodd" clip-rule="evenodd" d="M327.162 16.124V32.248L312.568 46.8243C304.541 54.841 297.973 61.8154 297.973 62.322C297.973 62.8285 297.699 63.2432 297.365 63.2432C296.968 63.2432 296.757 73.5811 296.757 93.0405V122.838H292.5H288.243V150.203V177.568H284.595H280.946V161.757V145.946H276.081H271.216V119.189V92.4324H266.351H261.486V87.5676V82.7027H255.405H249.324V88.1757V93.6486H244.459H239.595V108.851V124.054H235.338H231.081V139.865V155.676H226.216H221.351V166.014V176.351H218.311H215.27V129.818V83.2853L204.932 72.973L194.595 62.6607V54.4384C194.595 46.6218 194.534 46.2162 193.378 46.2162C192.222 46.2162 192.162 46.6218 192.162 54.4391V62.6625L182.432 72.3649L172.703 82.0672V129.818V177.568H168.446H164.189V155.068V132.568H159.324H154.459V127.703V122.838H144.73H135V149.595V176.351H130.743H126.486V145.338V114.324H110.676H94.8649V145.946V177.568H90.6081H86.3514V161.149V144.73H76.0135H65.6757V161.149V177.568H32.8378C0.405608 177.568 0 177.583 0 178.784C0 179.985 0.405608 180 34.0541 180H68.1081V163.581V147.162H76.0135H83.9189V163.581V180H90.6081H97.2973V148.378V116.757H110.676H124.054V147.77V178.784H130.743H137.432V152.027V125.27H144.73H152.027V130.135V135H156.892H161.757V157.5V180H168.446H175.135V131.651V83.3005L183.948 74.4884C188.794 69.6412 193.038 65.6757 193.378 65.6757C193.718 65.6757 198.235 69.9148 203.417 75.0965L212.838 84.5173V131.651V178.784H218.311H223.784V168.446V158.108H228.649H233.514V142.297V126.486H237.77H242.027V111.284V96.0811H246.892H251.757V90.6081V85.1351H255.405H259.054V90V94.8649H263.919H268.784V121.622V148.378H273.649H278.514V164.189V180H284.595H290.676V152.635V125.27H294.932H299.189V94.5578V63.8447L312.869 50.1659C320.391 42.6424 326.685 36.4865 326.855 36.4865C327.024 36.4865 327.162 61.6622 327.162 92.4324V148.378H331.419H335.676V164.189V180H342.365H349.054V148.051V116.102L354.527 110.676L360 105.25V95.192V85.1351H363.041H366.081V95.1951V105.255L370.946 110.068L375.811 114.88V146.832V178.784H381.284H386.757V158.108V137.432H396.486H406.216V115.541V93.6486H411.081H415.946V83.3108V72.973H424.459H432.973V99.7297V126.486H437.838H442.703V153.243V180H448.784H454.865V159.324C454.865 139.054 454.889 138.649 456.081 138.649C456.75 138.649 457.297 138.922 457.297 139.257C457.297 139.591 457.845 139.865 458.514 139.865C459.182 139.865 459.73 140.139 459.73 140.473C459.73 140.807 460.277 141.081 460.946 141.081C461.615 141.081 462.162 141.355 462.162 141.689C462.162 142.024 462.709 142.297 463.378 142.297C464.047 142.297 464.595 142.571 464.595 142.905C464.595 143.24 465.142 143.514 465.811 143.514C466.48 143.514 467.027 143.787 467.027 144.122C467.027 144.456 467.574 144.73 468.243 144.73C468.912 144.73 469.459 145.003 469.459 145.338C469.459 145.672 470.007 145.946 470.676 145.946C471.862 145.946 471.892 146.352 471.892 162.365V178.784H478.581H485.27V152.635V126.486H497.432H509.595V152.635V178.784H516.284H522.973V168.13V157.478L526.914 153.536C529.082 151.368 531.14 149.595 531.488 149.595C531.836 149.595 533.62 151.094 535.453 152.926L538.784 156.258V167.52V178.784H573.446C607.702 178.784 608.108 178.77 608.108 177.568C608.108 176.366 607.702 176.351 574.662 176.351H541.216V165.7V155.048L536.665 150.497C534.162 147.994 531.833 145.946 531.488 145.946C531.143 145.946 528.539 148.268 525.701 151.106L520.541 156.266V166.309V176.351H516.284H512.027V150.203V124.054H497.432H482.838V150.203V176.351H478.581H474.324V159.932V143.514H472.5C471.497 143.514 470.676 143.24 470.676 142.905C470.676 142.571 470.128 142.297 469.459 142.297C468.791 142.297 468.243 142.024 468.243 141.689C468.243 141.355 467.696 141.081 467.027 141.081C466.358 141.081 465.811 140.807 465.811 140.473C465.811 140.139 465.264 139.865 464.595 139.865C463.926 139.865 463.378 139.591 463.378 139.257C463.378 138.922 462.831 138.649 462.162 138.649C461.493 138.649 460.946 138.375 460.946 138.041C460.946 137.706 460.399 137.432 459.73 137.432C459.061 137.432 458.514 137.159 458.514 136.824C458.514 136.49 457.966 136.216 457.297 136.216C456.628 136.216 456.081 135.943 456.081 135.608C456.081 135.274 455.26 135 454.257 135H452.432V156.284V177.568H448.784H445.135V150.811V124.054H440.27H435.405V97.2973V70.5405H430.541H425.676V51.6892C425.676 33.2434 425.65 32.8378 424.459 32.8378C423.269 32.8378 423.243 33.2434 423.243 51.6892V70.5405H418.378H413.514V80.8784V91.2162H408.649H403.784V113.108V135H394.054H384.324V155.676V176.351H381.284H378.243V145.008V113.664L373.378 108.851L368.514 104.039V93.3707V82.7027H363.041H357.568V93.3677V104.033L352.095 109.459L346.622 114.886V146.227V177.568H342.365H338.108V161.757V145.946H333.851H329.595V72.973C329.595 0.405608 329.588 0 328.378 0C327.193 0 327.162 0.405608 327.162 16.124Z" fill="black"/>
</svg>
