<svg width="610" height="180" viewBox="0 0 610 180" fill="none" xmlns="http://www.w3.org/2000/svg">
<path fill-rule="evenodd" clip-rule="evenodd" d="M183.727 3.97369C183.323 6.2392 181.91 14.5311 180.587 22.3994C179.264 30.2677 177.97 37.8067 177.711 39.1524L177.241 41.5994L172.228 41.7322L167.216 41.8649L167.093 60.2751L166.971 78.6853H162.286H157.601V113.629V148.574H155.49H153.379V99.5786V50.5836L149.979 50.4457L146.578 50.3078L146.485 43.5066C146.434 39.7659 146.381 36.4418 146.367 36.1191C146.35 35.6772 144.614 35.5327 139.324 35.5327H132.305L130.959 31.194C130.218 28.8075 128.904 24.3806 128.037 21.3562C127.171 18.3318 126.366 15.9537 126.248 16.0719C126.13 16.1896 124.478 20.5579 122.576 25.7793C120.674 31.0003 118.943 35.4464 118.731 35.6589C118.518 35.8719 114.727 35.983 110.305 35.9066L102.266 35.7673L102.142 48.9007L102.018 62.034L98.62 62.1719L95.2217 62.3094L95.1021 105.325L94.9825 148.339L91.1162 148.475L87.2493 148.612L87.1292 114.482L87.0087 80.3528L78.3313 74.9038C73.5587 71.9066 64.9047 66.4713 59.1002 62.8253L48.5466 56.1958L48.427 102.15L48.3074 148.105L42.7984 148.138C39.7684 148.156 33.9123 148.265 29.7846 148.379C25.657 148.492 17.2671 148.583 11.1399 148.579L0 148.574V149.746V150.919H25.8521H51.7047L51.3544 106.078L51.0044 61.2367L52.1649 61.8699C52.8033 62.2179 60.2147 66.8301 68.6341 72.1186L83.943 81.7341L84.0687 116.37L84.1944 151.005L91.1129 151.079L98.0314 151.153V108.139V65.1241L101.432 64.9862L104.833 64.8483L104.957 51.5977L105.082 38.347H113.189H121.297L123.559 31.9947C124.803 28.5008 125.918 25.739 126.036 25.8572C126.155 25.9754 127.047 28.7813 128.019 32.0923L129.787 38.1125L136.658 38.2425L143.529 38.3719V45.63V52.8876H146.81H150.092L150.211 101.918L150.33 150.949L155.373 151.051L160.415 151.153V116.327L160.415 81.4996H165.34H170.265V62.9721V44.4447H175.1H179.935L181.933 32.3667C183.031 25.724 184.052 19.972 184.202 19.5851C184.352 19.1981 185.348 24.5804 186.416 31.5458L188.357 44.2102L192.689 44.3452L197.021 44.4803L196.99 62.8525L196.959 81.2247L201.436 81.2032L205.913 81.1811V116.05V150.919L207.203 150.931C207.912 150.938 222.49 150.933 239.599 150.919C270.259 150.896 270.802 150.879 277.358 149.765C281.016 149.144 286.542 147.841 289.638 146.872C292.734 145.902 295.9 145.12 296.674 145.134C297.448 145.148 300.068 145.945 302.497 146.905C304.925 147.864 309.358 149.199 312.347 149.871C317.73 151.079 318.001 151.092 341.116 151.267L364.451 151.444V148.836V146.228H369.846H375.24V148.808V151.388H380.399H385.559V147.401V143.414H387.669H389.78V147.401V151.388H398.215H406.649L406.775 140.542L406.9 129.695L410.569 132.746L414.237 135.796L414.321 143.475L414.405 151.153L424.529 151.28C432.455 151.379 434.656 151.277 434.67 150.811C434.679 150.483 436.729 143.567 439.226 135.44C441.722 127.314 444.173 119.293 444.672 117.616C446.667 110.913 450.837 97.626 451.222 96.7437C451.462 96.1949 451.645 107.334 451.663 123.597L451.695 151.388H458.965H466.235V141.069V130.75H469.988H473.74V141.069V151.388H481.71H489.679L489.801 126.472L489.922 101.557L496.372 111.952L502.821 122.347V136.868V151.388H511.499H520.176V145.005V138.623L528.971 138.79L537.765 138.958L538 126.601L538.234 114.243L544.522 110.77C547.98 108.86 550.882 107.297 550.971 107.297C551.061 107.297 551.133 117.218 551.133 129.343V151.388H556.516H561.897L562.027 144.014L562.156 136.639L566.357 134.164C568.668 132.802 570.725 131.688 570.93 131.688C571.135 131.688 571.302 136.12 571.302 141.538V151.388H590.533H609.764V149.981V148.574H591.941H574.117V137.512C574.117 131.428 573.944 126.52 573.732 126.607C573.521 126.693 570.143 128.639 566.227 130.931L559.107 135.1V141.837V148.574H556.527H553.948V125.54C553.948 107.296 553.826 102.557 553.361 102.749C553.039 102.882 548.765 105.195 543.863 107.889L534.951 112.786L534.826 124.63L534.7 136.473L525.797 136.131L516.893 135.79V142.181V148.574H511.499H506.104V135.229V121.885L496.926 107.04C491.877 98.876 487.633 91.8998 487.494 91.5382C487.356 91.1766 487.054 90.8806 486.823 90.8806C486.582 90.8806 486.404 103.113 486.404 119.727V148.574H481.714H477.023V138.255V127.936H469.988H462.952V138.273V148.61L458.848 148.475L454.744 148.339L454.635 112.248C454.575 92.398 454.433 75.9343 454.32 75.6623C454.207 75.3902 454.097 75.4723 454.077 75.8452C454.057 76.2181 451.922 83.5001 449.334 92.0274C446.745 100.555 444.087 109.326 443.427 111.519C442.767 113.712 441.936 116.35 441.58 117.382C441.224 118.414 439.225 124.852 437.14 131.688C435.055 138.524 433.027 145.12 432.634 146.346L431.919 148.574H424.687H417.454V141.655L417.454 134.737L415.226 132.84C407.251 126.051 403.863 123.245 403.639 123.245C403.498 123.245 403.383 128.944 403.383 135.909V148.574H398.223H393.064V144.587V140.6H387.669H382.275V144.587V148.574H380.424H378.572L378.43 146.159L378.288 143.743L369.846 143.803L361.403 143.863L361.261 146.219L361.119 148.574H341.021C318.676 148.574 314.72 148.207 305.768 145.311C299.613 143.318 299.573 143.274 302.582 141.752C309.061 138.475 314.083 133.852 316.443 128.99C319.195 123.323 317.714 116.188 313.325 113.97C310.351 112.466 306.197 112.794 302.956 114.789C301.686 115.57 300.503 116.209 300.328 116.209C300.152 116.209 299.427 116.766 298.717 117.447L297.426 118.684L296.186 117.211C295.505 116.402 293.627 115.001 292.013 114.098C289.67 112.787 288.369 112.397 285.549 112.159C282.428 111.895 281.801 111.983 280.138 112.917C276.523 114.949 275.335 119.457 276.967 124.953C278.34 129.576 284.83 137.189 290.861 141.25C292.163 142.127 293.054 142.948 292.841 143.074C291.832 143.669 283.968 145.785 279.554 146.648C270.483 148.423 267.215 148.574 237.938 148.574H209.196V113.629V78.6853H204.506H199.815V60.1578V41.6304H195.413H191.01L190.694 39.4024C189.523 31.1542 184.732 0.124202 184.611 0.00271842C184.529 -0.0793652 184.131 1.70771 183.727 3.97369ZM288.31 115.242C289.385 115.73 290.359 116.036 290.473 115.922C290.84 115.555 295.572 120.087 296.001 121.216C296.627 122.863 297.726 122.543 299.953 120.065C303.413 116.217 309.071 114.531 312.544 116.312C313.716 116.914 315.178 120.281 315.191 122.406C315.205 124.741 313.679 128.609 311.666 131.345C309.661 134.069 305.413 137.267 300.537 139.722C296.953 141.526 296.871 141.543 295.377 140.789C292.294 139.232 286.989 134.862 284.46 131.796C279.671 125.991 278.142 121.398 279.603 117.206C280.578 114.409 284.518 113.52 288.31 115.242ZM270.173 156.548C270.173 156.853 277.756 157.017 291.983 157.017C303.979 157.017 313.947 157.033 314.134 157.052C314.321 157.071 314.55 156.86 314.642 156.583C314.761 156.228 308.2 156.078 292.491 156.078C277.925 156.078 270.173 156.241 270.173 156.548ZM403.852 167.101V170.15H425.428H447.004V167.101V164.052H425.428H403.852V167.101ZM55.8169 166.163C55.8169 166.772 57.6668 166.867 69.6539 166.867C81.6409 166.867 83.4908 166.772 83.4908 166.163C83.4908 165.554 81.6409 165.459 69.6539 165.459C57.6668 165.459 55.8169 165.554 55.8169 166.163ZM271.58 166.163C271.58 166.779 274.655 166.867 296.439 166.867C318.224 166.867 321.299 166.779 321.299 166.163C321.299 165.547 318.224 165.459 296.439 165.459C274.655 165.459 271.58 165.547 271.58 166.163ZM224.206 173.199C224.206 173.818 228.792 173.902 262.668 173.902C296.543 173.902 301.13 173.818 301.13 173.199C301.13 172.579 296.543 172.495 262.668 172.495C228.792 172.495 224.206 172.579 224.206 173.199ZM456.002 172.988C456.198 173.575 492.737 173.671 492.737 173.085C492.737 172.89 484.433 172.674 474.286 172.607C461.295 172.521 455.884 172.633 456.002 172.988ZM157.601 176.487V179.54L179.06 179.418L200.519 179.296L200.658 176.365L200.798 173.433H179.199H157.601V176.487ZM340.061 175.779C340.061 176.698 340.374 176.717 355.724 176.717C369.574 176.717 371.42 176.631 371.672 175.975C371.828 175.567 371.956 175.144 371.956 175.037C371.956 174.929 364.78 174.84 356.009 174.84C340.374 174.84 340.061 174.859 340.061 175.779ZM374.395 175.403C373.629 176.169 373.688 176.717 374.536 176.717C374.927 176.717 375.24 176.3 375.24 175.779C375.24 174.685 375.152 174.646 374.395 175.403ZM377.585 175.779C377.585 176.672 377.898 176.717 384.152 176.717C390.405 176.717 390.718 176.672 390.718 175.779C390.718 174.885 390.405 174.84 384.152 174.84C377.898 174.84 377.585 174.885 377.585 175.779ZM106.474 176.491C106.474 177.111 107.829 177.187 116.872 177.077C124.681 176.983 127.318 176.805 127.465 176.365C127.617 175.908 125.332 175.779 117.067 175.779C107.905 175.779 106.474 175.875 106.474 176.491Z" fill="black"/>
</svg>
