<svg width="2531" height="748" viewBox="0 0 2531 748" fill="none" xmlns="http://www.w3.org/2000/svg">
<path fill-rule="evenodd" clip-rule="evenodd" d="M762.61 16.4939C760.933 25.8975 755.067 60.3153 749.577 92.9749C744.085 125.635 738.713 156.927 737.64 162.513L735.688 172.67L714.883 173.221L694.078 173.772L693.568 250.189L693.06 326.606H673.612H654.166V471.651V616.697H645.405H636.644V413.329V209.962L622.529 209.389L608.413 208.817L608.026 180.586C607.814 165.06 607.596 151.262 607.539 149.922C607.465 148.088 600.262 147.489 578.304 147.489H549.169L543.583 129.48C540.509 119.574 535.053 101.199 531.455 88.6449C527.859 76.0912 524.517 66.2203 524.028 66.7109C523.539 67.1996 516.68 85.3313 508.786 107.004C500.891 128.676 493.709 147.131 492.827 148.012C491.943 148.896 476.206 149.358 457.852 149.04L424.484 148.462L423.97 202.976L423.456 257.49L409.35 258.062L395.245 258.633L394.748 437.179L394.252 615.724L378.203 616.288L362.153 616.855L361.655 475.191L361.154 333.527L325.136 310.91C305.326 298.469 269.405 275.908 245.312 260.774L201.507 233.257L201.01 424.002L200.514 614.75L177.647 614.889C165.07 614.964 140.763 615.414 123.63 615.887C106.497 616.358 71.6721 616.734 46.2394 616.721L0 616.697V621.565V626.432H107.307H214.615L213.161 440.306L211.708 254.18L216.525 256.808C219.175 258.253 249.938 277.397 284.885 299.349L348.429 339.261L348.951 483.025L349.473 626.79L378.19 627.098L406.907 627.405V448.861V270.316L421.022 269.744L435.137 269.171L435.655 214.171L436.171 159.17H469.824H503.476L512.866 132.803C518.031 118.3 522.657 106.837 523.15 107.328C523.641 107.818 527.344 119.465 531.38 133.208L538.717 158.197L567.238 158.736L595.758 159.273V189.4V219.525H609.377H622.998L623.492 423.041L623.989 626.556L644.92 626.981L665.85 627.405V482.846L665.848 338.287H686.29H706.733V261.384V184.48H726.804H746.873L755.163 134.347C759.722 106.775 763.961 82.8996 764.584 81.2934C765.205 79.6871 769.34 102.028 773.771 130.94L781.828 183.507L799.81 184.068L817.791 184.628L817.663 260.887L817.532 337.146L836.116 337.057L854.699 336.965V481.7V626.432L860.053 626.482C862.997 626.51 923.509 626.488 994.525 626.434C1121.79 626.336 1124.04 626.266 1151.25 621.642C1166.44 619.063 1189.38 613.658 1202.22 609.632C1215.07 605.606 1228.22 602.36 1231.43 602.42C1234.64 602.479 1245.52 605.787 1255.6 609.77C1265.68 613.753 1284.08 619.292 1296.48 622.08C1318.83 627.098 1319.95 627.152 1415.9 627.878L1512.76 628.61V617.786V606.963H1535.15H1557.54V617.671V628.379H1578.95H1600.37V611.83V595.281H1609.13H1617.89V611.83V628.379H1652.9H1687.91L1688.43 583.358L1688.96 538.337L1704.18 550.998L1719.41 563.661L1719.76 595.532L1720.11 627.405L1762.13 627.929C1795.03 628.34 1804.16 627.917 1804.22 625.982C1804.26 624.623 1812.77 595.914 1823.13 562.183C1833.49 528.453 1843.66 495.161 1845.74 488.2C1854.02 460.377 1871.33 405.224 1872.92 401.562C1873.92 399.284 1874.68 445.522 1874.75 513.024L1874.89 628.379H1905.06H1935.24V585.546V542.714H1950.82H1966.39V585.546V628.379H1999.47H2032.55L2033.06 524.958L2033.56 421.54L2060.33 464.687L2087.1 507.835V568.108V628.379H2123.12H2159.14V601.885V575.393L2195.64 576.088L2232.15 576.785L2233.12 525.492L2234.09 474.196L2260.19 459.783C2274.55 451.855 2286.59 445.368 2286.96 445.368C2287.33 445.368 2287.63 486.545 2287.63 536.873V628.379H2309.98H2332.31L2332.85 597.769L2333.39 567.158L2350.83 556.884C2360.42 551.232 2368.96 546.608 2369.81 546.608C2370.66 546.608 2371.35 565.006 2371.35 587.493V628.379H2451.18H2531V622.538V616.697H2457.02H2383.03V570.783C2383.03 545.529 2382.32 525.159 2381.44 525.517C2380.56 525.873 2366.54 533.951 2350.29 543.468L2320.73 560.77V588.734V616.697H2310.02H2299.32V521.09C2299.32 445.364 2298.81 425.692 2296.88 426.489C2295.54 427.042 2277.8 436.642 2257.46 447.823L2220.47 468.151L2219.95 517.311L2219.42 566.47L2182.47 565.051L2145.51 563.634V590.165V616.697H2123.12H2100.73V561.307V505.917L2062.63 444.301C2041.68 410.413 2024.06 381.456 2023.48 379.955C2022.91 378.454 2021.65 377.226 2020.7 377.226C2019.7 377.226 2018.96 427.999 2018.96 496.961V616.697H1999.49H1980.02V573.865V531.033H1950.82H1921.61V573.941V616.849L1904.58 616.286L1887.54 615.724L1887.09 465.918C1886.84 383.524 1886.25 315.187 1885.78 314.058C1885.31 312.929 1884.86 313.269 1884.78 314.817C1884.69 316.365 1875.83 346.591 1865.09 381.986C1854.34 417.381 1843.31 453.788 1840.57 462.89C1837.83 471.992 1834.38 482.944 1832.9 487.227C1831.42 491.51 1823.13 518.232 1814.47 546.608C1805.82 574.984 1797.4 602.362 1795.77 607.449L1792.8 616.697H1762.78H1732.76V587.98L1732.76 559.263L1723.51 551.39C1690.41 523.21 1676.35 511.563 1675.42 511.563C1674.83 511.563 1674.35 535.218 1674.35 564.13V616.697H1652.94H1631.52V600.148V583.6H1609.13H1586.74V600.148V616.697H1579.06H1571.37L1570.78 606.673L1570.19 596.648L1535.15 596.897L1500.1 597.144L1499.52 606.922L1498.93 616.697H1415.5C1322.76 616.697 1306.33 615.177 1269.18 603.152C1243.63 594.884 1243.46 594.699 1255.95 588.383C1282.85 574.778 1303.69 555.591 1313.49 535.409C1324.91 511.887 1318.76 482.272 1300.54 473.063C1288.2 466.821 1270.96 468.184 1257.5 476.462C1252.23 479.706 1247.32 482.36 1246.6 482.36C1245.87 482.36 1242.86 484.671 1239.91 487.495L1234.55 492.631L1229.41 486.518C1226.58 483.158 1218.78 477.342 1212.08 473.596C1202.36 468.155 1196.96 466.537 1185.25 465.546C1172.3 464.452 1169.69 464.818 1162.79 468.696C1147.79 477.13 1142.86 495.842 1149.63 518.654C1155.33 537.843 1182.27 569.441 1207.3 586.298C1212.71 589.939 1216.4 593.346 1215.52 593.868C1211.33 596.34 1178.69 605.121 1160.37 608.705C1122.71 616.07 1109.15 616.697 987.627 616.697H868.328V471.651V326.606H848.858H829.389V249.702V172.799H811.115H792.84L791.527 163.551C786.668 129.314 766.784 0.515537 766.28 0.0112836C765.939 -0.329428 764.288 7.08833 762.61 16.4939ZM1196.71 478.343C1201.18 480.37 1205.22 481.639 1205.69 481.166C1207.21 479.644 1226.86 498.455 1228.64 503.143C1231.24 509.977 1235.8 508.649 1245.04 498.365C1259.4 482.391 1282.89 475.391 1297.3 482.788C1302.17 485.284 1308.24 499.259 1308.29 508.082C1308.35 517.772 1302.01 533.826 1293.66 545.187C1285.34 556.492 1267.7 569.765 1247.46 579.955C1232.59 587.443 1232.25 587.515 1226.05 584.384C1213.25 577.92 1191.23 559.785 1180.73 547.058C1160.85 522.963 1154.51 503.896 1160.57 486.499C1164.62 474.885 1180.97 471.196 1196.71 478.343ZM1121.43 649.795C1121.43 651.064 1152.9 651.742 1211.96 651.742C1261.75 651.742 1303.13 651.808 1303.9 651.888C1304.68 651.968 1305.63 651.092 1306.01 649.941C1306.5 648.467 1279.27 647.848 1214.07 647.848C1153.61 647.848 1121.43 648.524 1121.43 649.795ZM1676.3 693.601V706.256H1765.86H1855.42V693.601V680.946H1765.86H1676.3V693.601ZM231.684 689.707C231.684 692.236 239.363 692.627 289.118 692.627C338.874 692.627 346.552 692.236 346.552 689.707C346.552 687.178 338.874 686.786 289.118 686.786C239.363 686.786 231.684 687.178 231.684 689.707ZM1127.27 689.707C1127.27 692.265 1140.03 692.627 1230.46 692.627C1320.88 692.627 1333.64 692.265 1333.64 689.707C1333.64 687.149 1320.88 686.786 1230.46 686.786C1140.03 686.786 1127.27 687.149 1127.27 689.707ZM930.629 718.911C930.629 721.483 949.666 721.831 1090.28 721.831C1230.89 721.831 1249.92 721.483 1249.92 718.911C1249.92 716.339 1230.89 715.99 1090.28 715.99C949.666 715.99 930.629 716.339 930.629 718.911ZM1892.77 718.037C1893.58 720.47 2045.24 720.871 2045.24 718.439C2045.24 717.628 2010.78 716.734 1968.66 716.454C1914.73 716.095 1892.27 716.563 1892.77 718.037ZM654.166 732.559V745.233L743.238 744.727L832.31 744.221L832.89 732.052L833.468 719.884H743.818H654.166V732.559ZM1411.52 729.619C1411.52 733.435 1412.82 733.513 1476.53 733.513C1534.02 733.513 1541.68 733.156 1542.73 730.433C1543.38 728.739 1543.91 726.987 1543.91 726.539C1543.91 726.091 1514.12 725.725 1477.71 725.725C1412.82 725.725 1411.52 725.801 1411.52 729.619ZM1554.03 728.061C1550.85 731.241 1551.1 733.513 1554.62 733.513C1556.24 733.513 1557.54 731.782 1557.54 729.619C1557.54 725.08 1557.18 724.919 1554.03 728.061ZM1567.27 729.619C1567.27 733.328 1568.57 733.513 1594.53 733.513C1620.49 733.513 1621.79 733.328 1621.79 729.619C1621.79 725.91 1620.49 725.725 1594.53 725.725C1568.57 725.725 1567.27 725.91 1567.27 729.619ZM441.952 732.576C441.952 735.148 447.574 735.465 485.109 735.01C517.525 734.616 528.469 733.881 529.078 732.052C529.709 730.154 520.228 729.619 485.919 729.619C447.89 729.619 441.952 730.018 441.952 732.576Z" fill="black"/>
</svg>
