<svg width="1300" height="384" viewBox="0 0 1300 384" fill="none" xmlns="http://www.w3.org/2000/svg">
<path fill-rule="evenodd" clip-rule="evenodd" d="M391.7 8.47178C390.839 13.3018 387.826 30.9798 385.006 47.7548C382.185 64.5298 379.426 80.6028 378.875 83.4718L377.872 88.6888L367.186 88.9718L356.5 89.2548L356.238 128.505L355.977 167.755H345.988H336V242.255V316.755H331.5H327V212.299V107.843L319.75 107.549L312.5 107.255L312.301 92.7548C312.192 84.7798 312.08 77.6928 312.051 77.0048C312.013 76.0628 308.313 75.7548 297.035 75.7548H282.07L279.201 66.5048C277.622 61.4168 274.82 51.9788 272.972 45.5308C271.125 39.0828 269.408 34.0128 269.157 34.2648C268.906 34.5158 265.383 43.8288 261.328 54.9608C257.273 66.0918 253.584 75.5708 253.131 76.0238C252.677 76.4778 244.594 76.7148 235.167 76.5518L218.028 76.2548L217.764 104.255L217.5 132.255L210.255 132.549L203.01 132.842L202.755 224.549L202.5 316.255L194.257 316.545L186.013 316.836L185.757 244.073L185.5 171.31L167 159.693C156.825 153.303 138.375 141.715 126 133.942L103.5 119.808L103.245 217.781L102.99 315.755L91.245 315.826C84.785 315.865 72.3 316.096 63.5 316.339C54.7 316.581 36.813 316.774 23.75 316.767L0 316.755V319.255V321.755H55.116H110.233L109.486 226.155L108.74 130.555L111.214 131.905C112.575 132.647 128.376 142.48 146.326 153.755L178.964 174.255L179.232 248.097L179.5 321.939L194.25 322.097L209 322.255V230.549V138.843L216.25 138.549L223.5 138.255L223.766 110.005L224.031 81.7548H241.316H258.601L263.424 68.2118C266.077 60.7628 268.453 54.8748 268.706 55.1268C268.958 55.3788 270.86 61.3608 272.933 68.4198L276.702 81.2548L291.351 81.5318L306 81.8078V97.2818V112.755H312.995H319.991L320.245 217.287L320.5 321.819L331.251 322.037L342.001 322.255V248.005L342 173.755H352.5H363V134.255V94.7548H373.309H383.617L387.875 69.0048C390.217 54.8428 392.394 42.5798 392.714 41.7548C393.033 40.9298 395.157 52.4048 397.433 67.2548L401.571 94.2548L410.807 94.5428L420.043 94.8308L419.977 134L419.91 173.169L429.455 173.123L439 173.076V247.416V321.755L441.75 321.781C443.262 321.795 474.343 321.784 510.819 321.756C576.184 321.706 577.341 321.67 591.319 319.295C599.118 317.97 610.9 315.194 617.5 313.126C624.1 311.058 630.85 309.391 632.5 309.422C634.15 309.452 639.736 311.151 644.914 313.197C650.092 315.243 659.542 318.088 665.914 319.52C677.391 322.097 677.968 322.125 727.25 322.498L777 322.874V317.314V311.755H788.5H800V317.255V322.755H811H822V314.255V305.755H826.5H831V314.255V322.755H848.982H866.963L867.232 299.631L867.5 276.507L875.321 283.01L883.142 289.514L883.321 305.884L883.5 322.255L905.083 322.524C921.982 322.735 926.675 322.518 926.703 321.524C926.724 320.826 931.094 306.08 936.416 288.755C941.738 271.43 946.963 254.33 948.027 250.755C952.281 236.464 961.171 208.136 961.992 206.255C962.503 205.085 962.893 228.834 962.932 263.505L963 322.755H978.5H994V300.755V278.755H1002H1010V300.755V322.755H1026.99H1043.98L1044.24 269.635L1044.5 216.516L1058.25 238.678L1072 260.84V291.798V322.755H1090.5H1109V309.147V295.54L1127.75 295.897L1146.5 296.255L1147 269.909L1147.5 243.562L1160.91 236.159C1168.28 232.087 1174.47 228.755 1174.66 228.755C1174.85 228.755 1175 249.905 1175 275.755V322.755H1186.47H1197.95L1198.22 307.033L1198.5 291.31L1207.46 286.033C1212.38 283.13 1216.77 280.755 1217.21 280.755C1217.64 280.755 1218 290.205 1218 301.755V322.755H1259H1300V319.755V316.755H1262H1224V293.172C1224 280.201 1223.63 269.738 1223.18 269.922C1222.73 270.105 1215.53 274.254 1207.18 279.142L1192 288.029V302.392V316.755H1186.5H1181V267.648C1181 228.753 1180.74 218.649 1179.75 219.058C1179.06 219.342 1169.95 224.273 1159.5 230.016L1140.5 240.457L1140.23 265.707L1139.96 290.957L1120.98 290.228L1102 289.5V303.127V316.755H1090.5H1079V288.305V259.855L1059.43 228.207C1048.67 210.801 1039.62 195.928 1039.32 195.157C1039.03 194.386 1038.38 193.755 1037.89 193.755C1037.38 193.755 1037 219.834 1037 255.255V316.755H1027H1017V294.755V272.755H1002H987V294.794V316.833L978.25 316.544L969.5 316.255L969.268 239.31C969.141 196.99 968.839 161.89 968.597 161.31C968.356 160.73 968.122 160.905 968.079 161.7C968.036 162.495 963.485 178.02 957.966 196.2C952.447 214.38 946.78 233.08 945.374 237.755C943.967 242.43 942.194 248.055 941.435 250.255C940.676 252.455 936.416 266.18 931.97 280.755C927.524 295.33 923.2 309.392 922.363 312.005L920.839 316.755H905.42H890V302.005L889.999 287.255L885.25 283.211C868.248 268.737 861.025 262.755 860.547 262.755C860.246 262.755 860 274.905 860 289.755V316.755H849H838V308.255V299.755H826.5H815V308.255V316.755H811.052H807.105L806.802 311.606L806.5 306.457L788.5 306.585L770.5 306.712L770.198 311.734L769.895 316.755H727.047C679.409 316.755 670.974 315.974 651.889 309.798C638.767 305.551 638.681 305.456 645.095 302.212C658.91 295.224 669.615 285.369 674.648 275.003C680.514 262.921 677.356 247.71 668 242.98C661.659 239.774 652.804 240.474 645.893 244.726C643.185 246.392 640.664 247.755 640.29 247.755C639.916 247.755 638.37 248.942 636.856 250.393L634.103 253.031L631.461 249.891C630.008 248.165 626.005 245.178 622.564 243.254C617.567 240.459 614.795 239.628 608.782 239.119C602.129 238.557 600.791 238.745 597.246 240.737C589.539 245.069 587.007 254.68 590.486 266.397C593.413 276.253 607.25 292.483 620.107 301.141C622.884 303.011 624.783 304.761 624.328 305.029C622.177 306.299 605.412 310.809 596 312.65C576.661 316.433 569.695 316.755 507.276 316.755H446V242.255V167.755H436H426V128.255V88.7548H416.614H407.227L406.553 84.0048C404.057 66.4198 393.844 0.264796 393.585 0.00579559C393.41 -0.169204 392.562 3.64078 391.7 8.47178ZM614.669 245.692C616.961 246.733 619.036 247.385 619.28 247.142C620.062 246.36 630.151 256.022 631.066 258.43C632.401 261.94 634.743 261.258 639.491 255.976C646.868 247.771 658.931 244.176 666.335 247.975C668.833 249.257 671.951 256.435 671.978 260.967C672.007 265.944 668.755 274.19 664.462 280.025C660.188 285.832 651.132 292.649 640.736 297.883C633.096 301.729 632.92 301.766 629.736 300.158C623.162 296.838 611.853 287.523 606.46 280.986C596.251 268.61 592.991 258.817 596.106 249.881C598.185 243.916 606.584 242.021 614.669 245.692ZM576 333.755C576 334.407 592.167 334.755 622.5 334.755C648.075 334.755 669.326 334.789 669.725 334.83C670.124 334.871 670.611 334.421 670.808 333.83C671.061 333.073 657.074 332.755 623.583 332.755C592.528 332.755 576 333.102 576 333.755ZM861 356.255V362.755H907H953V356.255V349.755H907H861V356.255ZM119 354.255C119 355.554 122.944 355.755 148.5 355.755C174.056 355.755 178 355.554 178 354.255C178 352.956 174.056 352.755 148.5 352.755C122.944 352.755 119 352.956 119 354.255ZM579 354.255C579 355.569 585.556 355.755 632 355.755C678.444 355.755 685 355.569 685 354.255C685 352.941 678.444 352.755 632 352.755C585.556 352.755 579 352.941 579 354.255ZM478 369.255C478 370.576 487.778 370.755 560 370.755C632.222 370.755 642 370.576 642 369.255C642 367.934 632.222 367.755 560 367.755C487.778 367.755 478 367.934 478 369.255ZM972.184 368.806C972.6 370.056 1050.5 370.262 1050.5 369.013C1050.5 368.596 1032.8 368.137 1011.16 367.993C983.467 367.809 971.931 368.049 972.184 368.806ZM336 376.265V382.775L381.75 382.515L427.5 382.255L427.798 376.005L428.095 369.755H382.048H336V376.265ZM725 374.755C725 376.715 725.667 376.755 758.393 376.755C787.921 376.755 791.856 376.572 792.393 375.173C792.727 374.303 793 373.403 793 373.173C793 372.943 777.7 372.755 759 372.755C725.667 372.755 725 372.794 725 374.755ZM798.2 373.955C796.567 375.588 796.692 376.755 798.5 376.755C799.333 376.755 800 375.866 800 374.755C800 372.424 799.814 372.341 798.2 373.955ZM805 374.755C805 376.66 805.667 376.755 819 376.755C832.333 376.755 833 376.66 833 374.755C833 372.85 832.333 372.755 819 372.755C805.667 372.755 805 372.85 805 374.755ZM227 376.274C227 377.595 229.888 377.758 249.167 377.524C265.817 377.322 271.438 376.944 271.751 376.005C272.075 375.03 267.205 374.755 249.583 374.755C230.05 374.755 227 374.96 227 376.274Z" fill="black"/>
</svg>
