<svg viewBox="0 0 2531 778" xmlns="http://www.w3.org/2000/svg">
<path clip-rule="evenodd" d="M1253.96 12.2234C1216.08 56.0911 1206.02 92.8382 1218.02 143.458C1219.2 148.448 1219.18 148.471 1212.52 149.707C1208.85 150.39 1205.28 150.948 1204.6 150.948C1203.91 150.948 1202 148.585 1200.34 145.699C1196.81 139.53 1185.23 125.953 1183.51 125.951C1182.02 125.95 1173.2 135.973 1167.9 143.678C1163.38 150.242 1160.95 167.192 1163.2 176.428C1165.12 184.319 1170.25 186.946 1183.73 186.946C1191.66 186.946 1194.6 186.455 1198.42 184.492C1201.05 183.142 1203.2 181.005 1203.2 179.742C1203.21 177.988 1206.53 176.354 1217.32 172.807C1225.08 170.255 1231.56 168.23 1231.72 168.307C1231.88 168.384 1232.96 215.695 1234.13 273.442C1236.13 372.499 1236.81 401.603 1239.28 493.431C1241.93 592.438 1244.4 662.296 1247.11 715.298C1248.74 747.131 1249.68 773.376 1249.2 773.623C1248.72 773.87 1239.27 773.7 1228.19 773.244L1208.07 772.416L1207.52 760.297L1206.98 748.178L1188.39 739.396L1169.8 730.614L1151.45 739.996L1133.11 749.378V761.205V773.031L1124.83 772.723L1116.56 772.416L1116.05 730.608L1115.54 688.801L1098.53 688.927C1089.17 688.996 1080.42 689.023 1079.08 688.987C1077.21 688.936 1076.65 683.519 1076.65 665.422V641.923H1064.03H1051.41L1050.89 619.174L1050.36 596.425L1032.36 596.137L1014.35 595.85V618.886V641.923H1001.69H989.037V665.422C989.037 683.515 988.476 688.938 986.603 688.994C985.266 689.035 977.819 689.055 970.054 689.038L955.939 689.009V730.962V772.916H940.364H924.788L924.302 720.669C924.035 691.933 923.784 660.997 923.745 651.922C923.706 642.848 923.488 633.961 923.258 632.174L922.841 628.924H888.77H854.699V700.92V772.916H841.071H827.442V740.607V708.298L789.721 700.609C768.972 696.38 751.45 692.92 750.782 692.92C750.112 692.92 749.565 710.919 749.565 732.918V772.916H743.725H737.884L737.808 730.168L737.73 687.421L716.314 671.172C704.537 662.235 694.277 654.922 693.515 654.923C692.754 654.923 683.808 661.968 673.635 670.578L655.14 686.231L654.166 729.324C653.212 771.583 653.117 772.416 649.299 772.416C645.5 772.416 645.391 771.662 644.893 741.918L644.381 711.419L605.468 711.709L566.555 711.999V742.458C566.555 762.097 565.863 772.916 564.608 772.916C563.457 772.916 562.661 769.328 562.661 764.153V755.388L552.839 749.154L543.014 742.918H526.415H509.815L495.432 750.667L481.048 758.417L480.97 765.667C480.906 771.426 480.29 772.916 477.97 772.916C475.421 772.916 475.049 767.7 475.049 731.966V691.015L462.881 690.719L450.713 690.421L450.152 681.171L449.593 671.921H437.076H424.562L424.009 661.172L423.456 650.423L413.234 650.121L403.013 649.818V626.333V602.847L385.977 603.136L368.942 603.425L368.42 626.617L367.896 649.81L359.659 650.116L351.42 650.423L350.867 661.172L350.314 671.921H334.805H319.295V722.419C319.295 772.249 319.245 772.916 315.402 772.916C311.64 772.916 311.508 772.249 311.508 753.417V733.918H293.012H274.516V725.419V716.919H232.657H190.798V744.918V772.916H95.3992H0V775.416V777.916H101.24H202.48V749.917V721.919H232.657H262.835V730.918V739.918H282.304H301.773V758.917V777.916H316.375H330.977V727.419V676.921H346.552H362.128V666.422V655.922H370.889H379.65V632.424V608.925H386.562H393.473L393.273 630.674C393.164 642.635 393.119 653.21 393.175 654.172C393.259 655.597 395.075 655.922 402.947 655.922H412.615L413.168 666.672L413.721 677.421L426.863 677.082L440.005 676.743V686.332V695.92H451.686H463.368L463.484 726.669C463.549 743.581 463.5 762.03 463.377 767.667L463.152 777.916H477.705H492.258L492.381 769.357L492.503 760.8L502.563 754.858L512.625 748.918H525.872H539.119L546.022 753.561C552.85 758.154 552.926 758.312 552.926 768.06V777.916H565.581H578.236V747.418V716.919H606.466H634.697V747.418V777.916H649.299H663.901V733.725V689.534L678.727 676.728L693.552 663.922L710.851 676.87L728.149 689.819V733.867V777.916H743.725H759.3V739.418C759.3 718.244 759.956 700.918 760.76 700.916C763.147 700.91 812.63 711.152 815.274 712.2C817.131 712.936 817.708 720.82 817.708 745.54V777.916H842.044H866.381V705.92V633.923H889.744H913.107V705.92V777.916H939.39H965.674V736.457V694.998L982.709 694.709L999.745 694.42L1000.27 670.672L1000.79 646.923H1012.43H1024.08V623.924V600.925H1031.83H1039.58L1040.11 624.174L1040.63 647.423L1052.8 647.072L1064.97 646.721V670.82V694.92H1085.41H1105.85V736.418V777.916H1124.35H1142.84V764.799V751.68L1156.4 744.55L1169.95 737.418L1183.66 744.391L1197.36 751.363V764.64V777.916H1227.82H1258.28L1256.99 750.167C1251.5 632.26 1245.26 408.618 1243.03 249.943C1241.96 173.856 1241.02 161.948 1236.08 161.948C1234 161.948 1210.16 169.408 1201.86 172.658C1198.42 174.005 1195.09 176.418 1194.38 178.077C1192.93 181.46 1186.2 183.303 1178.78 182.347C1175.33 181.902 1173.7 180.782 1172.58 178.095C1170.21 172.369 1170.94 156.006 1173.84 149.948C1177.21 142.908 1181.76 136.949 1183.78 136.949C1185.6 136.949 1192.64 147.598 1194.59 153.297C1195.81 156.84 1196.34 157.103 1201.2 156.603C1204.11 156.304 1211.56 154.907 1217.77 153.498L1229.04 150.937L1227.69 145.193C1226.95 142.034 1225.53 135.849 1224.53 131.449C1221.65 118.707 1222.16 91.7073 1225.54 78.651C1230.89 57.937 1242.19 37.1141 1257.93 18.955L1265.3 10.4555L1272.45 18.3971C1288.2 35.9002 1301.81 61.6348 1306.34 82.4518C1308.81 93.7742 1308.88 120.915 1306.48 131.449C1305.47 135.849 1304.05 142.034 1303.31 145.193L1301.96 150.937L1313.23 153.498C1319.44 154.907 1327.01 156.316 1330.05 156.629C1334.71 157.108 1335.59 156.87 1335.59 155.125C1335.59 152.131 1345.2 136.949 1347.09 136.949C1348.83 136.949 1353.43 142.843 1357.23 149.948C1359.92 154.987 1360.64 172.5 1358.38 178.085C1357.22 180.969 1355.83 181.829 1351.7 182.235C1343.6 183.03 1337.61 181.38 1336.29 177.991C1335.62 176.27 1332.54 174.014 1329.03 172.672C1319.65 169.086 1296.96 161.948 1294.95 161.948C1290.04 161.948 1289.04 175.023 1287.99 252.943C1287.38 297.766 1286.43 349.738 1285.88 368.437C1285.33 387.136 1284.01 438.433 1282.96 482.431C1280.73 575.494 1277.85 661.049 1275.2 713.419C1274.16 733.768 1273.31 756.605 1273.3 764.167L1273.29 777.916H1287.89H1302.49V752.917V727.919H1327.8H1353.11V712.919V697.92H1374.53H1395.94V737.918V777.916H1408.6C1417.37 777.916 1421.28 777.532 1421.36 776.666C1421.85 770.73 1434.42 717.821 1435.47 717.284C1437.08 716.457 1448.04 716.343 1449.58 717.137C1450.18 717.44 1453.64 731.127 1457.3 747.553C1460.95 763.978 1463.97 777.528 1464.01 777.666C1464.05 777.804 1470.22 777.916 1477.71 777.916H1491.34V726.938V675.959L1495.72 675.444C1509.78 673.791 1566.85 666.742 1569.71 666.307C1572.92 665.816 1573.11 668.928 1573.11 721.892V777.997L1589.18 777.706L1605.24 777.416L1605.75 748.168L1606.27 718.919H1616.95H1627.63V708.42V697.92H1642.15H1656.67L1657.24 690.318L1657.8 682.715L1667.04 688.568L1676.28 694.42L1676.29 736.168L1676.3 777.916H1691.88C1703 777.916 1707.47 777.558 1707.53 776.666C1707.57 775.979 1707.79 759.892 1708.02 740.918L1708.42 706.42L1730.33 706.137L1752.23 705.854V741.885V777.916H1767.81H1783.38V766.417V754.917H1800.84H1818.3L1818.85 766.167L1819.4 777.416L1838.38 777.702L1857.36 777.988V717.816V657.644L1846.66 651.38L1835.95 645.116V636.696V628.277L1845.2 626.85L1854.44 625.424L1860.54 600.705C1863.89 587.111 1867.21 575.223 1867.91 574.289C1870.86 570.334 1873.32 575.842 1879.34 599.914L1885.67 625.273L1895.37 626.849L1905.06 628.424L1905.63 636.634L1906.19 644.844L1896.38 651.772L1886.57 658.701V718.309V777.916H1912.85H1939.14V727.885V677.853L1960.06 678.137L1980.99 678.421L1981.5 728.211L1982 778L1997.07 777.708L2012.14 777.416L2012.7 766.167L2013.25 754.917H2025.84H2038.43V747.677V740.437L2051.23 747.011L2064.03 753.584L2063.88 765.751L2063.73 777.916H2079.31H2094.89V750.917V723.919H2117.28H2139.67V750.917V777.916H2158.16H2176.66V761.917V745.918H2190.25H2203.84L2204.36 725.669L2204.89 705.42L2215.11 705.118L2225.33 704.815V689.369V673.921H2236.04H2246.75V657.922V641.923H2257.46H2268.17V709.919V777.916H2281.79H2295.42V763.64V749.363L2309.05 742.418L2322.68 735.472L2336.31 742.418L2349.94 749.363V763.64V777.916H2440.47H2531V775.416V772.916H2445.34H2359.67V759.647V746.378L2341.05 736.898L2322.43 727.419L2304.06 737.187L2285.69 746.956V759.936C2285.69 770.807 2285.21 772.916 2282.77 772.916C2280.21 772.916 2279.79 765.57 2279.42 713.669C2279.19 681.084 2279.28 650.486 2279.62 645.673L2280.25 636.923H2258.68H2237.11L2236.58 652.672L2236.04 668.422L2224.85 668.722L2213.65 669.022V684.471V699.92H2203.96H2194.26L2193.74 720.169L2193.21 740.418L2179.09 740.712L2164.98 741.006V756.961V772.916H2158.16H2151.35V745.918V718.919H2118.28H2085.22L2084.7 745.668L2084.18 772.416L2079.8 772.736C2075.57 773.044 2075.41 772.764 2075.2 764.737C2075.09 760.161 2075.14 755.422 2075.33 754.206C2075.58 752.607 2069.19 748.592 2052.25 739.707L2028.81 727.419L2028.75 738.168L2028.69 748.918H2015.07H2001.44V760.917V772.916H1996.57H1991.7V722.919V672.921H1960.57H1929.44L1928.93 722.669L1928.43 772.416H1912.85H1897.28L1898.03 715.919L1898.78 659.422L1907.28 653.295L1915.77 647.169V636.168C1915.77 624.004 1915.35 623.529 1903.45 622.387C1899.35 621.994 1895.7 621.166 1895.34 620.548C1894.98 619.93 1891.83 607.838 1888.34 593.675L1882 567.927H1869.9H1857.8L1855.37 578.176C1854.02 583.814 1851.06 595.838 1848.79 604.897L1844.65 621.369L1837.86 622.396C1826.18 624.166 1826.21 624.131 1826.21 636.307V647.572L1836.92 653.922L1847.63 660.273V716.595V772.916H1838.87H1830.11V760.917V748.918H1800.9H1771.7V760.987C1771.7 772.93 1771.66 773.052 1767.32 772.736L1762.94 772.416L1762.43 736.668L1761.92 700.92H1729.82H1697.72V736.984V773.049L1692.36 772.732L1687.01 772.416L1686.04 731.758L1685.06 691.102L1665.59 679.341L1646.12 667.581L1645.58 680.251L1645.03 692.92H1630.63H1616.23L1616.27 703.17L1616.3 713.419L1605.42 713.719L1594.53 714.019V743.534V773.049L1589.18 772.732L1583.82 772.416L1583.32 715.781L1582.82 659.145L1560.93 661.91C1548.89 663.43 1528.83 665.879 1516.36 667.352C1503.88 668.824 1490.52 670.476 1486.67 671.021L1479.66 672.015V722.466C1479.66 766.356 1479.29 772.916 1476.78 772.916C1475.19 772.916 1473.47 771.903 1472.96 770.666C1472.11 768.619 1460.15 713.42 1460.18 711.669C1460.19 711.256 1452.36 710.919 1442.79 710.919H1425.39L1424.29 715.169C1423.69 717.506 1421.01 729.544 1418.33 741.918C1411.6 773.038 1411.58 773.094 1408.95 772.643C1407.25 772.352 1406.52 761.969 1406.14 732.585L1405.63 692.92H1373.53H1341.43V707.39V721.859L1316.61 722.139L1291.78 722.419L1291.26 747.668C1290.75 772.734 1290.71 772.916 1286.57 772.916H1282.39L1283.7 734.168C1284.42 712.857 1285.87 673.371 1286.92 646.423C1289.77 573.262 1292.41 475.294 1294.8 353.438C1295.98 293.491 1297.54 227.26 1298.26 206.259L1299.57 168.074L1313.12 172.761C1323.56 176.37 1327.04 178.184 1328.25 180.652C1330.34 184.94 1336.48 186.946 1347.49 186.946C1358.82 186.946 1364.38 184.788 1366.79 179.447C1369.57 173.285 1368.96 156.171 1365.71 149.09C1362.57 142.248 1349.65 125.95 1347.37 125.95C1345.57 125.95 1332.73 141.164 1329.86 146.698C1327.41 151.42 1326.36 151.65 1317.72 149.357C1311.82 147.79 1311.75 147.679 1313.03 142.108C1319.4 114.361 1319.16 92.7512 1312.22 71.0753C1310.04 64.2677 1307.85 58.358 1307.35 57.942C1306.84 57.5271 1305.9 55.4462 1305.25 53.3203C1303.2 46.6606 1289.79 27.0056 1277.9 13.2313C1271.61 5.95769 1266.04 0.00400197 1265.5 2.17993e-06C1264.96 -0.00399761 1259.77 5.49672 1253.96 12.2234Z" fill="currentColor"/>
</svg>
